<?xml version="1.0" encoding="UTF-8" standalone="no"?>
<!-- Created with Inkscape (http://www.inkscape.org/) -->

<svg
   xmlns:dc="http://purl.org/dc/elements/1.1/"
   xmlns:cc="http://creativecommons.org/ns#"
   xmlns:rdf="http://www.w3.org/1999/02/22-rdf-syntax-ns#"
   xmlns:svg="http://www.w3.org/2000/svg"
   xmlns="http://www.w3.org/2000/svg"
   xmlns:sodipodi="http://sodipodi.sourceforge.net/DTD/sodipodi-0.dtd"
   xmlns:inkscape="http://www.inkscape.org/namespaces/inkscape"
   width="210mm"
   height="297mm"
   viewBox="0 0 210 297"
   version="1.1"
   id="svg8"
   inkscape:version="0.92.4 (5da689c313, 2019-01-14)"
   sodipodi:docname="code-glory.svg">
  <defs
     id="defs2" />
  <sodipodi:namedview
     id="base"
     pagecolor="#ffffff"
     bordercolor="#666666"
     borderopacity="1.0"
     inkscape:pageopacity="0.0"
     inkscape:pageshadow="2"
     inkscape:zoom="0.49497475"
     inkscape:cx="436.68235"
     inkscape:cy="613.36852"
     inkscape:document-units="mm"
     inkscape:current-layer="layer1"
     showgrid="false" />
  <metadata
     id="metadata5">
    <rdf:RDF>
      <cc:Work
         rdf:about="">
        <dc:format>image/svg+xml</dc:format>
        <dc:type
           rdf:resource="http://purl.org/dc/dcmitype/StillImage" />
        <dc:title></dc:title>
      </cc:Work>
    </rdf:RDF>
  </metadata>
  <g
     inkscape:label="Layer 1"
     inkscape:groupmode="layer"
     id="layer1">
    <rect
       style="opacity:1;fill:#b35ab3;fill-opacity:0;stroke:none;stroke-width:2;stroke-miterlimit:4;stroke-dasharray:none;stroke-opacity:1"
       id="rect826"
       width="182.94048"
       height="182.94048"
       x="-338.66666"
       y="-3.8690474"
       inkscape:export-xdpi="71.089996"
       inkscape:export-ydpi="71.089996" />
    <circle
       style="opacity:1;fill:#000000;fill-opacity:1;stroke:none;stroke-width:1.19570696;stroke-miterlimit:4;stroke-dasharray:none;stroke-opacity:1"
       id="path819"
       cx="-247.19641"
       cy="87.601189"
       r="68.243324" />
    <text
       xml:space="preserve"
       style="font-style:normal;font-weight:normal;font-size:198.80232239px;line-height:1.25;font-family:sans-serif;letter-spacing:36.62932968px;word-spacing:0px;fill:#ffffff;fill-opacity:1;stroke:none;stroke-width:1.9619807;stroke-miterlimit:4;stroke-dasharray:none;stroke-opacity:1"
       x="-335.1893"
       y="155.69099"
       id="text817"><tspan
         sodipodi:role="line"
         id="tspan815"
         x="-335.1893"
         y="155.69099"
         style="fill:#ffffff;stroke:none;stroke-width:1.9619807;stroke-miterlimit:4;stroke-dasharray:none;stroke-opacity:1">𝒢</tspan></text>
    <rect
       style="opacity:1;fill:#b35ab3;fill-opacity:0;stroke:none;stroke-width:1.58508623;stroke-miterlimit:4;stroke-dasharray:none;stroke-opacity:1"
       id="rect826-3"
       width="144.98819"
       height="144.98819"
       x="36.284595"
       y="52.651592"
       inkscape:export-xdpi="31.530001"
       inkscape:export-ydpi="31.530001" />
    <path
       style="opacity:1;fill:#000000;fill-opacity:1;stroke:none;stroke-width:1.19570696;stroke-miterlimit:4;stroke-dasharray:none;stroke-opacity:1"
       d="M 108.77869,57.47616 A 68.243322,68.243322 0 0 0 92.603448,59.496193 C 82.40997,62.951379 74.109282,69.219818 67.703162,78.304864 60.413743,88.510049 56.768943,98.98054 56.768943,109.71586 c 3e-6,7.42196 2.650575,13.45216 7.95197,18.09089 5.433931,4.50618 12.524785,6.75927 21.272087,6.75927 1.590419,0 3.57835,-0.13232 5.963978,-0.39739 -3.445906,-6.0966 -5.168677,-12.72355 -5.168677,-19.88044 0,-10.60279 3.445539,-20.542955 10.337352,-29.820395 6.891817,-9.277442 15.506697,-16.434199 25.844417,-21.470524 1.87656,-0.938282 3.75777,-1.790026 5.64307,-2.557984 A 68.243322,68.243322 0 0 0 108.77869,57.47616 Z m 32.83159,8.424294 c -2.42082,1.843243 -4.92275,4.055099 -7.50704,6.639388 -9.01237,8.879834 -16.76587,19.151068 -23.26008,30.814138 -6.36167,11.66307 -9.94005,21.60323 -10.73526,29.8204 9.54251,-1.85549 18.75362,-5.50029 27.63346,-10.93422 8.87983,-5.56646 16.16943,-11.59667 21.86843,-18.09088 5.80394,-6.595392 10.35938,-13.059274 13.66893,-19.392097 A 68.243322,68.243322 0 0 0 141.61028,65.900454 Z m 25.13128,23.884844 c -1.16572,1.9568 -2.5015,3.96153 -4.01112,6.01462 -6.62675,9.012372 -15.63912,17.362092 -27.03711,25.049112 -11.398,7.68703 -23.06094,12.78943 -34.98908,15.30759 2.78323,7.28942 8.68112,10.93422 17.69349,10.93422 6.36167,0 13.45201,-1.78919 21.27157,-5.36763 7.81956,-3.71098 14.04903,-7.28935 18.68775,-10.73526 4.63872,-3.57844 8.87974,-7.15734 12.72325,-10.73578 l 2.18695,2.18695 c -3.44591,3.71097 -6.36164,8.4159 -8.74727,14.1149 -2.25309,5.699 -3.84354,11.13298 -4.77128,16.30184 -0.92775,5.03633 -2.58462,10.27157 -4.97024,15.7055 -2.2531,5.43393 -5.10241,10.13886 -8.54832,14.11491 -0.0405,0.0486 -0.085,0.0958 -0.12609,0.14417 a 68.243322,68.243322 0 0 0 30.91801,-57.1009 68.243322,68.243322 0 0 0 -10.28051,-35.934242 z M 46.59954,97.74347 a 68.243322,68.243322 0 0 0 -6.064229,27.97607 68.243322,68.243322 0 0 0 24.020756,51.95393 c -1.078322,-2.7723 -1.624192,-5.5445 -1.624192,-8.31681 0,-4.90379 1.59045,-9.01249 4.771287,-12.32586 3.180836,-3.31337 7.289535,-4.97024 12.32586,-4.97024 3.578442,0 6.494177,0.99423 8.747271,2.98225 2.385628,1.98802 3.578076,4.57218 3.578076,7.75302 0,1.19281 -0.132323,2.25345 -0.397391,3.1812 -0.132535,0.79521 -0.530018,1.59017 -1.192694,2.38538 -0.530137,0.66267 -0.994039,1.193 -1.391644,1.5906 -0.397606,0.3976 -1.193089,0.86151 -2.385902,1.39165 -1.060278,0.3976 -1.921663,0.72866 -2.584339,0.99373 -0.53014,0.13254 -1.656686,0.3977 -3.379639,0.7953 -1.590418,0.39761 -2.716964,0.72919 -3.379637,0.99426 -3.445906,1.19281 -5.168677,3.24716 -5.168677,6.16293 0,1.34708 0.359881,2.60614 1.075904,3.77858 a 68.243322,68.243322 0 0 0 23.002729,8.73435 c 0.322861,0.007 0.646396,0.0114 0.970484,0.0114 6.229137,0 11.530287,-1.65687 15.903937,-4.97024 4.50619,-3.31337 7.95224,-7.22281 10.33787,-11.729 2.51816,-4.50618 6.09654,-10.33765 10.73526,-17.49454 4.77126,-7.28942 9.80776,-13.58479 15.10916,-18.88618 -11.92814,6.75928 -22.06705,10.13891 -30.41675,10.13891 -9.01237,0 -17.36209,-4.24154 -25.049116,-12.72377 -1.060278,0 -2.253245,0.0664 -3.578593,0.19896 -1.325348,0 -2.385475,0.0664 -3.180683,0.19895 h -1.590601 c -10.735326,0 -20.012853,-3.51247 -27.83241,-10.53682 -7.687024,-7.02435 -11.530562,-15.57281 -11.530562,-25.64546 0,-1.22827 0.05868,-2.434858 0.168465,-3.62252 z"
       id="path819-6"
       inkscape:connector-curvature="0" />
  </g>
</svg>
